<svg xmlns="http://www.w3.org/2000/svg" width="1040" height="620" viewBox="0 0 1040 620" role="img"><rect x="36" y="32" width="968" height="556" rx="28" fill="#fffaf4" stroke="rgba(17,17,17,0.10)"/><text x="72" y="82" fill="#111111" font-size="22" font-family="'Roobert', 'Inter', 'Segoe UI', sans-serif" font-weight="700" text-anchor="start">Latency vs tool volume</text><text x="72" y="110" fill="#6b7280" font-size="12" font-family="'Roobert', 'Inter', 'Segoe UI', sans-serif" font-weight="500" text-anchor="start">Tool intensity versus first-reply speed.</text><line x1="142" y1="150" x2="142" y2="516" stroke="rgba(17,17,17,0.10)" stroke-dasharray="4 8"/><text x="142" y="544" fill="#6b7280" font-size="12" font-family="'Roobert', 'Inter', 'Segoe UI', sans-serif" font-weight="500" text-anchor="middle">0</text><line x1="342.5" y1="150" x2="342.5" y2="516" stroke="rgba(17,17,17,0.10)" stroke-dasharray="4 8"/><text x="342.5" y="544" fill="#6b7280" font-size="12" font-family="'Roobert', 'Inter', 'Segoe UI', sans-serif" font-weight="500" text-anchor="middle">173</text><line x1="543" y1="150" x2="543" y2="516" stroke="rgba(17,17,17,0.10)" stroke-dasharray="4 8"/><text x="543" y="544" fill="#6b7280" font-size="12" font-family="'Roobert', 'Inter', 'Segoe UI', sans-serif" font-weight="500" text-anchor="middle">347</text><line x1="743.5" y1="150" x2="743.5" y2="516" stroke="rgba(17,17,17,0.10)" stroke-dasharray="4 8"/><text x="743.5" y="544" fill="#6b7280" font-size="12" font-family="'Roobert', 'Inter', 'Segoe UI', sans-serif" font-weight="500" text-anchor="middle">520</text><line x1="944" y1="150" x2="944" y2="516" stroke="rgba(17,17,17,0.10)" stroke-dasharray="4 8"/><text x="944" y="544" fill="#6b7280" font-size="12" font-family="'Roobert', 'Inter', 'Segoe UI', sans-serif" font-weight="500" text-anchor="middle">693</text><line x1="142" y1="516" x2="944" y2="516" stroke="rgba(17,17,17,0.10)" stroke-dasharray="4 8"/><text x="128" y="520" fill="#6b7280" font-size="12" font-family="'Roobert', 'Inter', 'Segoe UI', sans-serif" font-weight="500" text-anchor="end">0 ms</text><line x1="142" y1="424.5" x2="944" y2="424.5" stroke="rgba(17,17,17,0.10)" stroke-dasharray="4 8"/><text x="128" y="428.5" fill="#6b7280" font-size="12" font-family="'Roobert', 'Inter', 'Segoe UI', sans-serif" font-weight="500" text-anchor="end">11759 ms</text><line x1="142" y1="333" x2="944" y2="333" stroke="rgba(17,17,17,0.10)" stroke-dasharray="4 8"/><text x="128" y="337" fill="#6b7280" font-size="12" font-family="'Roobert', 'Inter', 'Segoe UI', sans-serif" font-weight="500" text-anchor="end">23519 ms</text><line x1="142" y1="241.5" x2="944" y2="241.5" stroke="rgba(17,17,17,0.10)" stroke-dasharray="4 8"/><text x="128" y="245.5" fill="#6b7280" font-size="12" font-family="'Roobert', 'Inter', 'Segoe UI', sans-serif" font-weight="500" text-anchor="end">35278 ms</text><line x1="142" y1="150" x2="944" y2="150" stroke="rgba(17,17,17,0.10)" stroke-dasharray="4 8"/><line x1="142" y1="516" x2="944" y2="516" stroke="#94a3b8" /><line x1="142" y1="150" x2="142" y2="516" stroke="#94a3b8" /><text x="520" y="596" fill="#6b7280" font-size="13" font-family="'Roobert', 'Inter', 'Segoe UI', sans-serif" font-weight="500" text-anchor="middle">Total tool calls</text><text x="28" y="333" fill="#6b7280" font-size="13" font-family="'Roobert', 'Inter', 'Segoe UI', sans-serif" font-weight="500" text-anchor="middle" transform="rotate(-90 28 333)">Avg. time to first reply (ms)</text><circle cx="636.1616161616162" cy="235.72741313727096" r="6" fill="#d97736" opacity="0.88"/><line x1="636.1616161616162" y1="235.72741313727096" x2="624.1616161616162" y2="223.72741313727096" stroke="rgba(17,17,17,0.10)" /><rect x="509.56161616161614" y="229.72741313727096" width="110.6" height="18" rx="9" fill="#fffaf4" opacity="0.92"/><text x="564.8616161616161" y="242.72741313727096" fill="#111111" font-size="9" font-family="'Roobert', 'Inter', 'Segoe UI', sans-serif" font-weight="700" text-anchor="middle">Claude Sonnet 4.6</text><circle cx="692.8686868686868" cy="207.54774427552712" r="6" fill="#d97736" opacity="0.88"/><line x1="692.8686868686868" y1="207.54774427552712" x2="682.8686868686868" y2="191.54774427552712" stroke="rgba(17,17,17,0.10)" /><rect x="539.2686868686868" y="183.54774427552712" width="139.6" height="18" rx="9" fill="#fffaf4" opacity="0.92"/><text x="609.0686868686868" y="196.54774427552712" fill="#111111" font-size="9" font-family="'Roobert', 'Inter', 'Segoe UI', sans-serif" font-weight="700" text-anchor="middle">Gemini 3.1 Pro Preview</text><circle cx="816.6984126984127" cy="201.59420220125241" r="6" fill="#d97736" opacity="0.88"/><line x1="816.6984126984127" y1="201.59420220125241" x2="826.6984126984127" y2="185.59420220125241" stroke="rgba(17,17,17,0.10)" /><rect x="830.6984126984127" y="177.59420220125241" width="54" height="18" rx="9" fill="#fffaf4" opacity="0.92"/><text x="857.6984126984127" y="190.59420220125241" fill="#111111" font-size="9" font-family="'Roobert', 'Inter', 'Segoe UI', sans-serif" font-weight="700" text-anchor="middle">GPT-5.4</text><circle cx="884.978354978355" cy="278.7620591494973" r="6" fill="#d97736" opacity="0.88"/><line x1="884.978354978355" y1="278.7620591494973" x2="874.978354978355" y2="262.7620591494973" stroke="rgba(17,17,17,0.10)" /><rect x="806.7783549783551" y="254.7620591494973" width="64.19999999999999" height="18" rx="9" fill="#fffaf4" opacity="0.92"/><text x="838.8783549783551" y="267.7620591494973" fill="#111111" font-size="9" font-family="'Roobert', 'Inter', 'Segoe UI', sans-serif" font-weight="700" text-anchor="middle">Kimi K2.6</text><circle cx="944" cy="150" r="6" fill="#d97736" opacity="0.88"/><line x1="944" y1="150" x2="934" y2="156" stroke="rgba(17,17,17,0.10)" /><rect x="876" y="176" width="54" height="18" rx="9" fill="#fffaf4" opacity="0.92"/><text x="903" y="189" fill="#111111" font-size="9" font-family="'Roobert', 'Inter', 'Segoe UI', sans-serif" font-weight="700" text-anchor="middle">GLM-5.1</text></svg>