<svg xmlns="http://www.w3.org/2000/svg" width="1040" height="500" viewBox="0 0 1040 500" role="img"><rect x="36" y="32" width="968" height="436" rx="28" fill="#fffaf4" stroke="rgba(17,17,17,0.10)"/><text x="72" y="82" fill="#111111" font-size="26" font-family="'Roobert', 'Inter', 'Segoe UI', sans-serif" font-weight="700" text-anchor="start">Root-cause mix</text><text x="72" y="106" fill="#6b7280" font-size="13" font-family="'Roobert', 'Inter', 'Segoe UI', sans-serif" font-weight="500" text-anchor="start">Failures are split by evaluator-meaningful ownership, not just raw status buckets.</text><line x1="92" y1="382" x2="968" y2="382" stroke="rgba(17,17,17,0.10)" stroke-dasharray="4 8"/><text x="82" y="386" fill="#6b7280" font-size="11" font-family="'Roobert', 'Inter', 'Segoe UI', sans-serif" font-weight="500" text-anchor="end">0%</text><line x1="92" y1="315" x2="968" y2="315" stroke="rgba(17,17,17,0.10)" stroke-dasharray="4 8"/><text x="82" y="319" fill="#6b7280" font-size="11" font-family="'Roobert', 'Inter', 'Segoe UI', sans-serif" font-weight="500" text-anchor="end">25%</text><line x1="92" y1="248" x2="968" y2="248" stroke="rgba(17,17,17,0.10)" stroke-dasharray="4 8"/><text x="82" y="252" fill="#6b7280" font-size="11" font-family="'Roobert', 'Inter', 'Segoe UI', sans-serif" font-weight="500" text-anchor="end">50%</text><line x1="92" y1="181" x2="968" y2="181" stroke="rgba(17,17,17,0.10)" stroke-dasharray="4 8"/><text x="82" y="185" fill="#6b7280" font-size="11" font-family="'Roobert', 'Inter', 'Segoe UI', sans-serif" font-weight="500" text-anchor="end">75%</text><line x1="92" y1="114" x2="968" y2="114" stroke="rgba(17,17,17,0.10)" stroke-dasharray="4 8"/><text x="82" y="118" fill="#6b7280" font-size="11" font-family="'Roobert', 'Inter', 'Segoe UI', sans-serif" font-weight="500" text-anchor="end">100%</text><rect x="92" y="362.85714285714283" width="66" height="19.142857142857142" rx="10" fill="#d97736"/><rect x="92" y="113.99999999999997" width="66" height="248.85714285714286" rx="10" fill="#2f7a5b"/><text x="125" y="412" fill="#111111" font-size="11" font-family="'Roobert', 'Inter', 'Segoe UI', sans-serif" font-weight="600" text-anchor="middle">GLM-5.1</text><rect x="254" y="114" width="66" height="268" rx="10" fill="#2f7a5b"/><text x="287" y="412" fill="#111111" font-size="11" font-family="'Roobert', 'Inter', 'Segoe UI', sans-serif" font-weight="600" text-anchor="middle">Kimi K2.6</text><rect x="416" y="337.3333333333333" width="66" height="44.666666666666664" rx="10" fill="#d97736"/><rect x="416" y="307.55555555555554" width="66" height="29.777777777777775" rx="10" fill="#94a3b8"/><rect x="416" y="114" width="66" height="193.55555555555554" rx="10" fill="#2f7a5b"/><text x="449" y="412" fill="#111111" font-size="11" font-family="'Roobert', 'Inter', 'Segoe UI', sans-serif" font-weight="600" text-anchor="middle">Claude Sonnet 4.6</text><rect x="578" y="318.94117647058823" width="66" height="63.05882352941176" rx="10" fill="#94a3b8"/><rect x="578" y="114" width="66" height="204.94117647058823" rx="10" fill="#2f7a5b"/><text x="611" y="412" fill="#111111" font-size="11" font-family="'Roobert', 'Inter', 'Segoe UI', sans-serif" font-weight="600" text-anchor="middle">GPT-5.5</text><rect x="740" y="337.3333333333333" width="66" height="44.666666666666664" rx="10" fill="#94a3b8"/><rect x="740" y="113.99999999999997" width="66" height="223.33333333333334" rx="10" fill="#2f7a5b"/><text x="773" y="412" fill="#111111" font-size="11" font-family="'Roobert', 'Inter', 'Segoe UI', sans-serif" font-weight="600" text-anchor="middle">Gemini 3.1 Pro Preview</text><rect x="902" y="114" width="66" height="268" rx="10" fill="#2f7a5b"/><text x="935" y="412" fill="#111111" font-size="11" font-family="'Roobert', 'Inter', 'Segoe UI', sans-serif" font-weight="600" text-anchor="middle">DeepSeek V4 Pro</text><circle cx="106" cy="450" r="7" fill="#d97736"/><text x="120" y="454" fill="#6b7280" font-size="12" font-family="'Roobert', 'Inter', 'Segoe UI', sans-serif" font-weight="500" text-anchor="start">completion semantics</text><circle cx="316" cy="450" r="7" fill="#94a3b8"/><text x="330" y="454" fill="#6b7280" font-size="12" font-family="'Roobert', 'Inter', 'Segoe UI', sans-serif" font-weight="500" text-anchor="start">benchmark verification</text><circle cx="526" cy="450" r="7" fill="#c65145"/><text x="540" y="454" fill="#6b7280" font-size="12" font-family="'Roobert', 'Inter', 'Segoe UI', sans-serif" font-weight="500" text-anchor="start">infra runtime</text><circle cx="736" cy="450" r="7" fill="#2f7a5b"/><text x="750" y="454" fill="#6b7280" font-size="12" font-family="'Roobert', 'Inter', 'Segoe UI', sans-serif" font-weight="500" text-anchor="start">agent behavior</text></svg>