<svg xmlns="http://www.w3.org/2000/svg" width="1120" height="580" viewBox="0 0 1120 580" role="img"><rect x="36" y="32" width="1048" height="516" rx="28" fill="#fffaf4" stroke="rgba(17,17,17,0.10)"/><text x="72" y="88" fill="#111111" font-size="34" font-family="'Roobert', 'Inter', 'Segoe UI', sans-serif" font-weight="700" text-anchor="start">Root-cause mix</text><text x="72" y="118" fill="#6b7280" font-size="16" font-family="'Roobert', 'Inter', 'Segoe UI', sans-serif" font-weight="500" text-anchor="start">Failures are split by evaluator-meaningful ownership, not just raw status buckets.</text><rect x="96" y="428.61538461538464" width="120" height="25.384615384615387" rx="12" fill="#d97736"/><rect x="96" y="377.84615384615387" width="120" height="50.769230769230774" rx="12" fill="#94a3b8"/><rect x="96" y="365.1538461538462" width="120" height="12.692307692307693" rx="12" fill="#c65145"/><rect x="96" y="124.00000000000006" width="120" height="241.15384615384613" rx="12" fill="#2f7a5b"/><text x="156" y="486" fill="#111111" font-size="13" font-family="'Roobert', 'Inter', 'Segoe UI', sans-serif" font-weight="600" text-anchor="middle">GLM-5.1</text><rect x="276" y="392.8888888888889" width="120" height="61.11111111111111" rx="12" fill="#d97736"/><rect x="276" y="356.22222222222223" width="120" height="36.666666666666664" rx="12" fill="#94a3b8"/><rect x="276" y="124" width="120" height="232.22222222222223" rx="12" fill="#2f7a5b"/><text x="336" y="486" fill="#111111" font-size="13" font-family="'Roobert', 'Inter', 'Segoe UI', sans-serif" font-weight="600" text-anchor="middle">Kimi K2.6</text><rect x="456" y="427.6" width="120" height="26.400000000000002" rx="12" fill="#d97736"/><rect x="456" y="401.20000000000005" width="120" height="26.400000000000002" rx="12" fill="#94a3b8"/><rect x="456" y="124.00000000000006" width="120" height="277.2" rx="12" fill="#2f7a5b"/><text x="516" y="486" fill="#111111" font-size="13" font-family="'Roobert', 'Inter', 'Segoe UI', sans-serif" font-weight="600" text-anchor="middle">Claude Sonnet 4.6</text><rect x="636" y="434" width="120" height="20" rx="12" fill="#d97736"/><rect x="636" y="344" width="120" height="90" rx="12" fill="#94a3b8"/><rect x="636" y="324" width="120" height="20" rx="12" fill="#c65145"/><rect x="636" y="124" width="120" height="200" rx="12" fill="#2f7a5b"/><text x="696" y="486" fill="#111111" font-size="13" font-family="'Roobert', 'Inter', 'Segoe UI', sans-serif" font-weight="600" text-anchor="middle">GPT-5.4</text><rect x="816" y="430.42857142857144" width="120" height="23.57142857142857" rx="12" fill="#d97736"/><rect x="816" y="347.92857142857144" width="120" height="82.5" rx="12" fill="#94a3b8"/><rect x="816" y="336.14285714285717" width="120" height="11.785714285714285" rx="12" fill="#c65145"/><rect x="816" y="124" width="120" height="212.14285714285717" rx="12" fill="#2f7a5b"/><text x="876" y="486" fill="#111111" font-size="13" font-family="'Roobert', 'Inter', 'Segoe UI', sans-serif" font-weight="600" text-anchor="middle">Gemini 3.1 Pro Preview</text><circle cx="112" cy="526" r="7" fill="#d97736"/><text x="126" y="530" fill="#6b7280" font-size="13" font-family="'Roobert', 'Inter', 'Segoe UI', sans-serif" font-weight="500" text-anchor="start">completion-semantics</text><circle cx="342" cy="526" r="7" fill="#94a3b8"/><text x="356" y="530" fill="#6b7280" font-size="13" font-family="'Roobert', 'Inter', 'Segoe UI', sans-serif" font-weight="500" text-anchor="start">benchmark-verification</text><circle cx="572" cy="526" r="7" fill="#c65145"/><text x="586" y="530" fill="#6b7280" font-size="13" font-family="'Roobert', 'Inter', 'Segoe UI', sans-serif" font-weight="500" text-anchor="start">infra-runtime</text><circle cx="802" cy="526" r="7" fill="#2f7a5b"/><text x="816" y="530" fill="#6b7280" font-size="13" font-family="'Roobert', 'Inter', 'Segoe UI', sans-serif" font-weight="500" text-anchor="start">agent-behavior</text></svg>